# xmcd
#
# Track frame offsets: 
#        150
#        11735
#        29439
#        38181
#        54140
#        63809
#        77135
#        83772
#        94565
#        111353
#
# Disc length: 1651 seconds
#
# Revision: 0
# Processed by: cddbd v1.5.1PL2 Copyright (c) Steve Scherf et al.
# Submitted via: ExactAudioCopy v0.95b3
#
DISCID=6f06710a
DTITLE=The Jakebrakes - Pullin' Doubles
DYEAR=2004
DGENRE=Country
TTITLE0=Big Wheel Cannonball
TTITLE1=Pullin' Doubles
TTITLE2=He'll Be Here
TTITLE3=The Fugitive
TTITLE4=One More Mile
TTITLE5=The Greatest Cowboy
TTITLE6=Blumenhof Rag
TTITLE7=Buckaroo
TTITLE8=Orange Blossom Special
TTITLE9=Sneaky Radar
EXTD=
EXTT0=
EXTT1=
EXTT2=
EXTT3=
EXTT4=
EXTT5=
EXTT6=
EXTT7=
EXTT8=
EXTT9=
PLAYORDER=
